<svg width="720" height="560" viewBox="0 0 720 560" fill="none" xmlns="http://www.w3.org/2000/svg">
  <rect width="720" height="560" rx="36" fill="#071426"/>
  <circle cx="362" cy="250" r="160" fill="#0B2A42"/>
  <circle cx="362" cy="250" r="112" fill="#0E3D4F"/>
  <path d="M360 118l82 32v68c0 66-34 116-82 142-48-26-82-76-82-142v-68l82-32Z" fill="#12C7A6"/>
  <path d="M360 142l58 22v51c0 46-23 83-58 105-35-22-58-59-58-105v-51l58-22Z" fill="#0D826F"/>
  <rect x="326" y="220" width="68" height="56" rx="10" fill="#F8FAFC"/>
  <path d="M340 220v-22a20 20 0 0 1 40 0v22" stroke="#F8FAFC" stroke-width="14" stroke-linecap="round"/>
  <circle cx="360" cy="248" r="7" fill="#0B1220"/>
  <path d="M356 253h8l4 14h-16l4-14Z" fill="#0B1220"/>
  <rect x="198" y="374" width="190" height="18" rx="9" fill="#1A334D"/>
  <rect x="238" y="330" width="132" height="62" rx="14" fill="#D7E3F7"/>
  <rect x="257" y="346" width="94" height="26" rx="5" fill="#246BFE"/>
  <circle cx="482" cy="206" r="24" fill="#143250"/><path d="M482 192v28M468 206h28" stroke="#67E8D4" stroke-width="7" stroke-linecap="round"/>
  <circle cx="210" cy="230" r="22" fill="#143250"/><path d="M200 231l7 7 14-16" stroke="#67E8D4" stroke-width="7" stroke-linecap="round" stroke-linejoin="round"/>
</svg>
