<svg width="512" height="512" viewBox="0 0 512 512" fill="none" xmlns="http://www.w3.org/2000/svg" role="img" aria-labelledby="title desc">
  <title id="title">Secure Personal Dashboard logo</title>
  <desc id="desc">A shield-shaped personal dashboard mark with four panels and a central keyhole.</desc>
  <defs>
    <linearGradient id="shieldGradient" x1="94" y1="70" x2="418" y2="442" gradientUnits="userSpaceOnUse">
      <stop offset="0" stop-color="#00D1B2"/>
      <stop offset="0.52" stop-color="#246BFE"/>
      <stop offset="1" stop-color="#101828"/>
    </linearGradient>
    <linearGradient id="panelGradient" x1="159" y1="151" x2="354" y2="332" gradientUnits="userSpaceOnUse">
      <stop offset="0" stop-color="#F8FAFC"/>
      <stop offset="1" stop-color="#D7E3F7"/>
    </linearGradient>
    <filter id="softShadow" x="54" y="51" width="404" height="426" filterUnits="userSpaceOnUse" color-interpolation-filters="sRGB">
      <feFlood flood-opacity="0" result="BackgroundImageFix"/>
      <feColorMatrix in="SourceAlpha" type="matrix" values="0 0 0 0 0 0 0 0 0 0 0 0 0 0 0 0 0 0 127 0" result="hardAlpha"/>
      <feOffset dy="18"/>
      <feGaussianBlur stdDeviation="22"/>
      <feComposite in2="hardAlpha" operator="out"/>
      <feColorMatrix type="matrix" values="0 0 0 0 0.0156863 0 0 0 0 0.0901961 0 0 0 0 0.180392 0 0 0 0.22 0"/>
      <feBlend mode="normal" in2="BackgroundImageFix" result="effect1_dropShadow_1_1"/>
      <feBlend mode="normal" in="SourceGraphic" in2="effect1_dropShadow_1_1" result="shape"/>
    </filter>
  </defs>
  <rect width="512" height="512" rx="112" fill="#F6F8FB"/>
  <g filter="url(#softShadow)">
    <path d="M256 72L391 124V228C391 318 336 397 256 434C176 397 121 318 121 228V124L256 72Z" fill="url(#shieldGradient)"/>
    <path d="M256 95L371 139V229C371 304 326 372 256 409C186 372 141 304 141 229V139L256 95Z" stroke="white" stroke-opacity="0.35" stroke-width="10"/>
  </g>
  <path d="M169 165C169 152.85 178.85 143 191 143H321C333.15 143 343 152.85 343 165V317C343 329.15 333.15 339 321 339H191C178.85 339 169 329.15 169 317V165Z" fill="#0B1220" fill-opacity="0.32"/>
  <path d="M181 174C181 163.507 189.507 155 200 155H312C322.493 155 331 163.507 331 174V308C331 318.493 322.493 327 312 327H200C189.507 327 181 318.493 181 308V174Z" fill="url(#panelGradient)"/>
  <path d="M205 183H247V225H205V183Z" fill="#00BFA6"/>
  <path d="M265 183H307V225H265V183Z" fill="#246BFE"/>
  <path d="M205 245H247V287H205V245Z" fill="#F8FAFC"/>
  <path d="M265 245H307V287H265V245Z" fill="#F8FAFC"/>
  <path d="M218 266H235" stroke="#246BFE" stroke-width="8" stroke-linecap="round"/>
  <path d="M278 266H294" stroke="#00BFA6" stroke-width="8" stroke-linecap="round"/>
  <path d="M222 204H230" stroke="white" stroke-width="8" stroke-linecap="round"/>
  <path d="M278 204H294" stroke="white" stroke-width="8" stroke-linecap="round"/>
  <circle cx="256" cy="241" r="35" fill="#101828"/>
  <circle cx="256" cy="231" r="12" fill="#F8FAFC"/>
  <path d="M249 242H263L267 285H245L249 242Z" fill="#F8FAFC"/>
  <path d="M219 355H293" stroke="white" stroke-opacity="0.72" stroke-width="12" stroke-linecap="round"/>
  <path d="M239 381H273" stroke="white" stroke-opacity="0.72" stroke-width="12" stroke-linecap="round"/>
</svg>
