<svg width="24" height="24" viewBox="0 0 24 24" fill="none" xmlns="http://www.w3.org/2000/svg" role="img" aria-label="settings icon">
  <g stroke="#67E8D4" stroke-width="1.8" stroke-linecap="round" stroke-linejoin="round">
    <circle cx="12" cy="12" r="3"/><path d="M19.4 15a1.8 1.8 0 0 0 .4 2l.1.1-2 3.4-.2-.1a1.8 1.8 0 0 0-2.1.4l-.3.2-3.8-2.2.1-.3a1.8 1.8 0 0 0-.9-1.9 1.8 1.8 0 0 0-2 .4l-.2.2-3.4-2 .1-.2a1.8 1.8 0 0 0-.4-2.1l-.2-.2V8.8l.2-.1a1.8 1.8 0 0 0 .4-2.1L5 6.4l3.4-2 .2.2a1.8 1.8 0 0 0 2 .4 1.8 1.8 0 0 0 .9-1.9l-.1-.3L15.2.6l.3.2a1.8 1.8 0 0 0 2.1.4l.2-.1 2 3.4-.1.1a1.8 1.8 0 0 0-.4 2l.1.3 3.8 2.2v4.4L19.4 15Z"/>
  </g>
</svg>
